# Blender 3.6.0
# www.blender.org
mtllib key.mtl
o ĞšÑƒĞ±
v -0.000000 1.000000 -1.648171
v -0.000000 -1.000000 -1.648171
v -0.195446 -1.000000 4.231024
v -1.577627 -1.000000 0.549148
v -0.622564 -1.000000 4.050820
v -1.007872 -1.000000 3.527849
v -1.313654 -1.000000 2.713301
v -1.509979 -1.000000 1.686911
v -1.577627 1.000000 0.549148
v -0.195446 1.000000 4.231024
v -1.509979 1.000000 1.686911
v -1.313654 1.000000 2.713301
v -1.007872 1.000000 3.527849
v -0.622564 1.000000 4.050820
v 1.577627 -1.000000 0.549148
v 0.195446 -1.000000 4.231024
v 1.509979 -1.000000 1.686911
v 1.313654 -1.000000 2.713301
v 1.007872 -1.000000 3.527849
v 0.622564 -1.000000 4.050820
v 0.195446 1.000000 4.231024
v 1.577627 1.000000 0.549148
v 0.622564 1.000000 4.050820
v 1.007872 1.000000 3.527849
v 1.313654 1.000000 2.713301
v 1.509979 1.000000 1.686911
v -2.284053 -1.000000 -1.367151
v -1.898798 -1.000000 -3.093294
v -2.534299 -1.000000 -2.181620
v -2.621053 -1.000000 -2.810576
v -2.535823 -1.000000 -3.192454
v -2.286951 -1.000000 -3.289872
v -1.898798 1.000000 -3.093294
v -2.284053 1.000000 -1.367151
v -2.286951 1.000000 -3.289872
v -2.535823 1.000000 -3.192454
v -2.621053 1.000000 -2.810576
v -2.534299 1.000000 -2.181620
v 1.898798 -1.000000 -3.093294
v 2.284053 -1.000000 -1.367151
v 2.286951 -1.000000 -3.289872
v 2.535823 -1.000000 -3.192454
v 2.621053 -1.000000 -2.810576
v 2.534299 -1.000000 -2.181620
v 2.284053 1.000000 -1.367151
v 1.898798 1.000000 -3.093294
v 2.534299 1.000000 -2.181620
v 2.621053 1.000000 -2.810576
v 2.535823 1.000000 -3.192454
v 2.286951 1.000000 -3.289872
vn -0.0000 -0.0000 1.0000
vn -0.0000 -1.0000 -0.0000
vn 0.9383 -0.0000 0.3459
vn 0.6056 -0.0000 -0.7958
vn -0.6056 -0.0000 -0.7958
vn -0.3887 -0.0000 0.9214
vn -0.8051 -0.0000 0.5932
vn -0.9362 -0.0000 0.3515
vn -0.9822 -0.0000 0.1879
vn -0.9982 -0.0000 0.0594
vn 0.3887 -0.0000 0.9214
vn 0.8051 -0.0000 0.5932
vn 0.9362 -0.0000 0.3515
vn 0.9822 -0.0000 0.1879
vn 0.9982 -0.0000 0.0594
vn -0.0000 1.0000 -0.0000
vn 0.4518 -0.0000 -0.8921
vn -0.3645 -0.0000 -0.9312
vn -0.9760 -0.0000 -0.2178
vn -0.9906 -0.0000 0.1366
vn -0.9559 -0.0000 0.2937
vn 0.9559 -0.0000 0.2937
vn 0.9906 -0.0000 0.1366
vn 0.9760 -0.0000 -0.2178
vn 0.3645 -0.0000 -0.9312
vn -0.4518 -0.0000 -0.8921
vn -0.9383 -0.0000 0.3459
vt 0.375000 0.859514
vt 0.625000 0.859514
vt 0.625000 0.890486
vt 0.375000 0.890486
vt 0.125000 0.583487
vt 0.127992 0.557923
vt 0.136239 0.535021
vt 0.148124 0.516536
vt 0.162391 0.504304
vt 0.178483 0.500000
vt 0.250000 0.500000
vt 0.321517 0.500000
vt 0.337609 0.504304
vt 0.351876 0.516536
vt 0.363761 0.535021
vt 0.372008 0.557923
vt 0.375000 0.583487
vt 0.375000 0.640486
vt 0.369640 0.674328
vt 0.354085 0.704857
vt 0.329857 0.729085
vt 0.299328 0.744640
vt 0.265486 0.750000
vt 0.234514 0.750000
vt 0.200672 0.744640
vt 0.170143 0.729085
vt 0.145915 0.704857
vt 0.130360 0.674328
vt 0.125000 0.640486
vt 0.375000 0.583487
vt 0.625000 0.583487
vt 0.625000 0.640486
vt 0.375000 0.640486
vt 0.375000 0.303483
vt 0.625000 0.303483
vt 0.625000 0.375000
vt 0.375000 0.375000
vt 0.625000 0.446517
vt 0.375000 0.446517
vt 0.625000 0.924328
vt 0.375000 0.924328
vt 0.625000 1.000000
vt 0.375000 1.000000
vt 0.375000 0.000000
vt 0.625000 0.000000
vt 0.625000 0.045143
vt 0.375000 0.045143
vt 0.625000 0.075672
vt 0.375000 0.075672
vt 0.625000 0.109514
vt 0.375000 0.109514
vt 0.375000 0.825672
vt 0.625000 0.825672
vt 0.375000 0.795143
vt 0.625000 0.795143
vt 0.375000 0.704857
vt 0.625000 0.704857
vt 0.375000 0.674328
vt 0.625000 0.674328
vt 0.627992 0.557923
vt 0.636239 0.535021
vt 0.648124 0.516536
vt 0.662391 0.504304
vt 0.678483 0.500000
vt 0.750000 0.500000
vt 0.821517 0.500000
vt 0.837609 0.504304
vt 0.851876 0.516536
vt 0.863761 0.535021
vt 0.872008 0.557923
vt 0.875000 0.583487
vt 0.875000 0.640486
vt 0.869640 0.674328
vt 0.854085 0.704857
vt 0.829857 0.729085
vt 0.799328 0.744640
vt 0.765486 0.750000
vt 0.734514 0.750000
vt 0.700673 0.744640
vt 0.670143 0.729085
vt 0.645915 0.704857
vt 0.630360 0.674328
vt 0.625000 0.640486
vt 0.375000 0.289232
vt 0.625000 0.289232
vt 0.375000 0.280930
vt 0.625000 0.280930
vt 0.375000 0.201718
vt 0.625000 0.201718
vt 0.375000 0.188758
vt 0.625000 0.188758
vt 0.375000 0.166513
vt 0.625000 0.166513
vt 0.375000 0.561242
vt 0.625000 0.561242
vt 0.375000 0.548282
vt 0.625000 0.548282
vt 0.375000 0.469070
vt 0.625000 0.469070
vt 0.375000 0.460768
vt 0.625000 0.460768
s 0
f 16/1/1 21/2/1 10/3/1 3/4/1
f 27/5/2 29/6/2 30/7/2 31/8/2 32/9/2 28/10/2 2/11/2 39/12/2 41/13/2 42/14/2 43/15/2 44/16/2 40/17/2 15/18/2 17/19/2 18/20/2 19/21/2 20/22/2 16/23/2 3/24/2 5/25/2 6/26/2 7/27/2 8/28/2 4/29/2
f 40/30/3 45/31/3 22/32/3 15/33/3
f 28/34/4 33/35/4 1/36/4 2/37/4
f 2/37/5 1/36/5 46/38/5 39/39/5
f 3/4/6 10/3/6 14/40/6 5/41/6
f 5/41/7 14/40/7 13/42/7 6/43/7
f 6/44/8 13/45/8 12/46/8 7/47/8
f 7/47/9 12/46/9 11/48/9 8/49/9
f 8/49/10 11/48/10 9/50/10 4/51/10
f 21/2/11 16/1/11 20/52/11 23/53/11
f 23/53/12 20/52/12 19/54/12 24/55/12
f 24/55/13 19/54/13 18/56/13 25/57/13
f 25/57/14 18/56/14 17/58/14 26/59/14
f 26/59/15 17/58/15 15/33/15 22/32/15
f 45/31/16 47/60/16 48/61/16 49/62/16 50/63/16 46/64/16 1/65/16 33/66/16 35/67/16 36/68/16 37/69/16 38/70/16 34/71/16 9/72/16 11/73/16 12/74/16 13/75/16 14/76/16 10/77/16 21/78/16 23/79/16 24/80/16 25/81/16 26/82/16 22/83/16
f 33/35/17 28/34/17 32/84/17 35/85/17
f 35/85/18 32/84/18 31/86/18 36/87/18
f 36/87/19 31/86/19 30/88/19 37/89/19
f 37/89/20 30/88/20 29/90/20 38/91/20
f 38/91/21 29/90/21 27/92/21 34/93/21
f 45/31/22 40/30/22 44/94/22 47/95/22
f 47/95/23 44/94/23 43/96/23 48/97/23
f 48/97/24 43/96/24 42/98/24 49/99/24
f 49/99/25 42/98/25 41/100/25 50/101/25
f 50/101/26 41/100/26 39/39/26 46/38/26
f 4/51/27 9/50/27 34/93/27 27/92/27
